# xmcd
#
# Track frame offsets: 
#        150
#        9635
#        34559
#        44527
#        65573
#        86688
#        103719
#        117426
#        131206
#        145318
#        164158
#        185203
#        216463
#        235353
#        249970
#        265459
#
# Disc length: 4332 seconds
#
# Revision: 0
# Processed by: cddbd v1.5.2PL0 Copyright (c) Steve Scherf et al.
# Submitted via: ExactAudioCopy v0.99pb5
#
DISCID=fd10ea10
DTITLE=Various Artist - Global Communication - Back In The Box
DYEAR=2011
DGENRE=Techno
TTITLE0=Fade II Black - The Calling (Reprise)
TTITLE1=System 7 and Derrick May - Altitude
TTITLE2=Reese - Just Want Another Chance
TTITLE3=BFC - Galaxy
TTITLE4=F.U.S.E. - Technotropic
TTITLE5=Shake - Sonar 123
TTITLE6=Lory D - Sickness (Sounds Never Seen)
TTITLE7=Neuropolitique - Mind You Don't Trip
TTITLE8=DHS - Number 9 Bad Acid
TTITLE9=Speedy J - De-Orbit (TM Outer Limits Salute Repitch)
TTITLE10=Balil - Nort Route
TTITLE11=Florence - A Touch Of Heaven
TTITLE12=Flux - True Feelings
TTITLE13=Reload and E621 - Ptyzh
TTITLE14=States Of Mind - Audio Q5A
TTITLE15=Robert Leiner - Aqua Viva
EXTD=
EXTT0=
EXTT1=
EXTT2=
EXTT3=
EXTT4=
EXTT5=
EXTT6=
EXTT7=
EXTT8=
EXTT9=
EXTT10=
EXTT11=
EXTT12=
EXTT13=
EXTT14=
EXTT15=
PLAYORDER=
